<svg width="48" height="48" viewBox="0 0 52 52" fill="none" xmlns="http://www.w3.org/2000/svg">
<circle cx="25.5" cy="25.5" r="25.5" fill="white"/>
<path fill-rule="evenodd" clip-rule="evenodd" d="M51.2092 25.6046C51.2092 39.7456 39.7456 51.2092 25.6046 51.2092C11.4636 51.2092 0 39.7456 0 25.6046C0 24.059 0.136954 22.5453 0.39939 21.0751L15.1151 40.5118C16.2532 42.0151 18.3945 42.311 19.8977 41.1729C21.4009 40.0348 21.6969 37.8936 20.5588 36.3904L3.11635 13.3522C7.45997 5.39672 15.902 0 25.6046 0C36.5378 0 45.8704 6.85251 49.542 16.4969C48.811 15.9099 47.8825 15.5586 46.8719 15.5586C44.5151 15.5586 42.6045 17.4692 42.6045 19.826C42.6045 22.1829 44.5151 24.0935 46.8719 24.0935C48.6905 24.0935 50.2435 22.9558 50.8579 21.3534C51.0889 22.7361 51.2092 24.1563 51.2092 25.6046Z" fill="#4FDAF9"/>
<circle cx="37.2928" cy="28.2674" r="4.26743" fill="white"/>
<rect x="11.0254" y="17.1211" width="6.82789" height="31.6884" rx="3.41395" transform="rotate(-37.1297 11.0254 17.1211)" fill="white"/>
</svg>
